The Fighter - 2010 - HD



MPEG-4 movie



1.78 GB



1280ÃŽý



I found this on another tracker and thought i would bring this here for every1 to enjoy an HD screener



More info here: http://www.imdb.com/title/tt0964517/



Thanks to the original uploader: mf34inc and to anty1 else that was involved.

Complete name :The Fighter.mp4
Format : MPEG-4
Format profile : Base Media
Codec ID : isom
File size : 1.79 GiB
Duration : 1h 55mn
Overall bit rate : 2 216 Kbps
Movie name : The Fighter
Performer : David O. Russell
Genre : Drama
Encoded date : UTC 2003-04-28 07:00:00
Tagged date : UTC 2011-01-28 03:21:47
Cover : Yes
desc : Mark Wahlberg stars in Paramount Pictures inspirational docudrama exploring the remarkable rise of Massachusetts-born lightweight title winner "Irish" Micky Ward. A determined pugilist whose career in the ring was shepherded by his loyal half-brother, Di
stik : 0

Video
ID : 1
Format : AVC
Format/Info : Advanced Video Codec
Format profile : Baseline@L3.0
Format settings, CABAC : No
Format settings, ReFrames : 3 frames
Codec ID : avc1
Codec ID/Info : Advanced Video Coding
Duration : 1h 55mn
Bit rate mode : Variable
Bit rate : 2 049 Kbps
Width : 1 280 pixels
Height : 532 pixels
Display aspect ratio : 2.40:1
Frame rate mode : Constant
Frame rate : 23.976 fps
Color space : YUV
Chroma subsampling : 4:2:0
Bit depth : 8 bits
Scan type : Progressive
Bits/(Pixel*Frame) : 0.126
Stream size : 1.66 GiB (92%)
Writing library : x264 core 83 r1400M
Encoding settings : cabac=0 / ref=3 / deblock=1:0:0 / analyse=0x1:0x111 / me=hex / subme=7 / psy=1 / psy_rd=1.0:0.0 / mixed_ref=1 / me_range=16 / chroma_me=0 / trellis=0 / 8x8dct=0 / cqm=0 / deadzone=21,11 / fast_pskip=1 / chroma_qp_offset=-2 / threads=6 / sliced_threads=0 / nr=0 / decimate=1 / mbaff=0 / constrained_intra=0 / bframes=0 / wpredp=0 / keyint=300 / keyint_min=25 / scenecut=40 / intra_refresh=0 / rc_lookahead=40 / rc=crf / mbtree=1 / crf=22.0 / qcomp=0.60 / qpmin=10 / qpmax=51 / qpstep=4 / ip_ratio=1.41 / aq=1:1.00

Audio
ID : 2
Format : AAC
Format/Info : Advanced Audio Codec
Format version : Version 4
Format profile : LC
Codec ID : 40
Duration : 1h 55mn
Bit rate mode : Variable
Bit rate : 162 Kbps
Channel(s) : 2 channels
Channel positions : Front: L R
Sampling rate : 48.0 KHz
Compression mode : Lossy
Stream size : 134 MiB (7%)

